<svg width="150" height="113" viewBox="0 0 150 113" fill="none" xmlns="http://www.w3.org/2000/svg">
<path d="M10.2273 112.539H34.0909V54.5785L0 29.0078V102.31C0 107.962 4.5767 112.539 10.2273 112.539Z" fill="#4285F4"/>
<path d="M115.906 112.539H139.77C145.42 112.539 149.997 107.962 149.997 102.31V29.0078L115.906 54.5785V112.539Z" fill="#34A853"/>
<path d="M115.906 10.2558V54.5783L149.997 29.0077V15.37C149.997 2.72953 135.568 -4.48992 125.452 3.09604L115.906 10.2558Z" fill="#FBBC04"/>
<path d="M34.0938 54.5784V10.2559L75.0028 40.9407L115.912 10.2559V54.5784L75.0028 85.2632L34.0938 54.5784Z" fill="#EA4335"/>
<path d="M0 15.37V29.0077L34.0909 54.5783V10.2558L24.5454 3.09604C14.429 -4.48992 0 2.72953 0 15.37Z" fill="#C5221F"/>
</svg>
